<?xml version="1.0" encoding="UTF-8" standalone="no"?>
<!-- Uploaded to: SVG Repo, www.svgrepo.com, Generator: SVG Repo Mixer Tools -->

<svg
   width="699.99939"
   height="699.99939"
   viewBox="0 0 27.999976 27.999976"
   fill="none"
   version="1.1"
   id="svg493"
   sodipodi:docname="gitIcon.svg"
   xmlns:inkscape="http://www.inkscape.org/namespaces/inkscape"
   xmlns:sodipodi="http://sodipodi.sourceforge.net/DTD/sodipodi-0.dtd"
   xmlns="http://www.w3.org/2000/svg"
   xmlns:svg="http://www.w3.org/2000/svg">
  <defs
     id="defs497" />
  <sodipodi:namedview
     id="namedview495"
     pagecolor="#ffffff"
     bordercolor="#000000"
     borderopacity="0.25"
     inkscape:showpageshadow="2"
     inkscape:pageopacity="0.0"
     inkscape:pagecheckerboard="0"
     inkscape:deskcolor="#d1d1d1"
     showgrid="false" />
  <path
     d="m 0.58536,15.4132 c -0.78048,-0.7805 -0.78048,-2.0459 0,-2.8264 L 12.5868,0.58536 c 0.7805,-0.78048 2.0459,-0.78048 2.8264,0 L 27.4146,12.5868 c 0.7805,0.7805 0.7805,2.0459 0,2.8264 L 15.4132,27.4146 c -0.7805,0.7805 -2.0459,0.7805 -2.8264,0 z"
     fill="#ee513b"
     id="path489" />
  <path
     d="m 10.1489,3.06152 -1.2153,1.21534 3.1389,3.13891 c -0.127,0.27242 -0.1979,0.57624 -0.1979,0.89663 0,0.9096 0.5715,1.6857 1.375,1.9888 v 7.6786 c -0.8035,0.3031 -1.375,1.0792 -1.375,1.9888 0,1.1736 0.9514,2.125 2.125,2.125 1.1736,0 2.125,-0.9514 2.125,-2.125 0,-0.8246 -0.4697,-1.5396 -1.1562,-1.8918 v -7.7651 l 3.0005,3.0005 c -0.1208,0.2669 -0.188,0.5632 -0.188,0.8752 0,1.1736 0.9514,2.125 2.125,2.125 1.1736,0 2.125,-0.9514 2.125,-2.125 0,-1.1736 -0.9514,-2.125 -2.125,-2.125 -0.2281,0 -0.4477,0.0359 -0.6537,0.1024 L 16.0297,8.9423 c 0.0617,-0.199 0.0949,-0.4106 0.0949,-0.6299 0,-1.17362 -0.9514,-2.12502 -2.125,-2.12502 -0.2193,0 -0.4308,0.03323 -0.6299,0.09492 z"
     fill="#ffffff"
     id="path491" />
</svg>
