<svg width="70" height="74" viewBox="0 0 70 74" fill="none" xmlns="http://www.w3.org/2000/svg">
<path d="M17.2142 17.8382C17.1266 16.436 16.3668 18.1264 16.1791 18.6049C15.3897 20.618 14.4892 22.8222 14.454 25.0072C14.3964 28.5767 14.3114 31.8663 15.5657 35.2433C17.2926 39.8925 20.4105 44.4382 25.4951 45.7094C28.5286 46.4677 30.9633 46.8493 33.6993 45.7094C35.7501 44.8549 36.1912 41.9118 36.1912 39.9971C36.1912 36.9474 33.7055 35.2752 30.6706 35.435C28.8345 35.5316 27.7636 38.3428 26.9519 39.5754C25.4544 41.8493 25.1042 46.2734 25.9168 48.7763C27.8724 54.7995 34.111 60.8035 40.6766 60.9676C42.5264 61.0138 47.8762 61.7501 48.9575 59.5874" stroke="black" stroke-width="3" stroke-linecap="round"/>
<path d="M48 54C48.1489 57.7224 59.1945 56.1171 61.4564 55.1118C61.869 54.9284 62.8515 54.9949 61.7247 55.0351C60.2411 55.0881 58.3661 56.2739 57.1434 57.1245C54.917 58.6733 52.3308 61.674 51.7954 64.3511" stroke="black" stroke-width="3" stroke-linecap="round"/>
</svg>
