<svg width="103" height="73" viewBox="0 0 103 73" fill="none" xmlns="http://www.w3.org/2000/svg">
<path d="M99.7773 17.1914C101.379 17.832 102.5 19.2734 102.5 20.875C102.5 22.6367 101.379 24.0781 99.7773 24.7188L54.6133 40.8945C52.3711 41.6953 49.9688 41.6953 47.7266 40.8945L17.2969 30.0039C15.375 32.0859 13.9336 34.6484 13.293 37.5312C14.4141 38.332 15.375 39.7734 15.375 41.375C15.375 42.9766 14.5742 44.418 13.4531 45.3789L17.2969 69.2422C17.6172 70.8438 16.3359 72.125 14.8945 72.125H5.44531C4.00391 72.125 2.72266 70.8438 3.04297 69.2422L6.88672 45.3789C5.76562 44.418 5.125 42.9766 5.125 41.375C5.125 39.293 6.40625 37.5312 8.16797 36.7305C8.80859 33.5273 10.25 30.6445 12.1719 28.082L2.5625 24.7188C0.960938 24.0781 0 22.6367 0 20.875C0 19.2734 0.960938 17.832 2.5625 17.1914L47.5664 1.01562C49.8086 0.214844 52.2109 0.214844 54.4531 1.01562L99.7773 17.1914ZM56.2148 45.6992L79.5977 37.3711L82 60.2734C82 66.8398 68.0664 72.125 51.25 72.125C34.1133 72.125 20.5 66.8398 20.5 60.2734L22.7422 37.3711L46.125 45.6992C47.7266 46.3398 49.4883 46.5 51.25 46.5C52.8516 46.5 54.6133 46.3398 56.2148 45.6992Z" fill="black"/>
</svg>
