<?xml version="1.0" encoding="UTF-8" standalone="no"?>
<!-- Uploaded to: SVG Repo, www.svgrepo.com, Generator: SVG Repo Mixer Tools -->

<svg
   width="681"
   height="666.57001"
   viewBox="0 0 54.48 53.3256"
   stroke-width="3"
   stroke="#B32A00"
   fill="none"
   version="1.1"
   id="svg44"
   xmlns="http://www.w3.org/2000/svg"
   xmlnsSsvg="http://www.w3.org/2000/svg">
  <defs
     id="defs48" />
  <path
     d="m 34.294034,49.922579 a 24.86,24.86 0 1 1 16.93,-23.57 37.24,37.24 0 0 1 -0.73,6"
     id="path26" />
  <path
     d="m 32.224034,45.302579 a 47,47 0 0 1 -5.86,5.6"
     id="path28" />
  <path
     d="m 26.364034,1.2025777 a 34.14,34.14 0 0 1 11.57,23.0000013 34.07,34.07 0 0 1 0.09,4.85"
     id="path30" />
  <path
     d="m 26.364034,1.2025777 a 34.09,34.09 0 0 0 -11.69,25.4600013 c 0,16.2 7.28,21 11.66,24.24"
     id="path32" />
  <line
     x1="4.7340355"
     y1="14.102577"
     x2="48.114033"
     y2="14.102577"
     id="line34" />
  <line
     x1="26.364037"
     y1="1.1925776"
     x2="26.364037"
     y2="50.902584"
     id="line36" />
  <line
     x1="5.4140358"
     y1="39.682583"
     x2="31.404037"
     y2="39.682583"
     id="line38" />
  <line
     x1="1.5040345"
     y1="26.662575"
     x2="51.224033"
     y2="26.052576"
     id="line40" />
  <path
     d="m 47.934034,51.202579 4.43,-4.44 -8,-8 4.55,-2.91 a 0.38,0.38 0 0 0 -0.12,-0.7 l -15.29,-3.58 a 0.39,0.39 0 0 0 -0.46,0.46 l 3.32,15.58 a 0.39,0.39 0 0 0 0.71,0.13 l 2.86,-4.54 z"
     id="path42" />
  <path
     d="m 34.294034,49.922579 a 24.86,24.86 0 1 1 16.93,-23.57 37.24,37.24 0 0 1 -0.73,6"
     id="path523" />
  <path
     d="m 32.224034,45.302579 a 47,47 0 0 1 -5.86,5.6"
     id="path525" />
  <path
     d="m 26.364034,1.2025777 a 34.14,34.14 0 0 1 11.57,23.0000013 34.07,34.07 0 0 1 0.09,4.85"
     id="path527" />
  <path
     d="m 26.364034,1.2025777 a 34.09,34.09 0 0 0 -11.69,25.4600013 c 0,16.2 7.28,21 11.66,24.24"
     id="path529" />
  <line
     x1="4.7340355"
     y1="14.102577"
     x2="48.114033"
     y2="14.102577"
     id="line531" />
  <line
     x1="26.364037"
     y1="1.1925776"
     x2="26.364037"
     y2="50.902584"
     id="line533" />
  <line
     x1="5.4140358"
     y1="39.682583"
     x2="31.404037"
     y2="39.682583"
     id="line535" />
  <line
     x1="1.5040345"
     y1="26.662575"
     x2="51.224033"
     y2="26.052576"
     id="line537" />
  <path
     d="m 47.934034,51.202579 4.43,-4.44 -8,-8 4.55,-2.91 a 0.38,0.38 0 0 0 -0.12,-0.7 l -15.29,-3.58 a 0.39,0.39 0 0 0 -0.46,0.46 l 3.32,15.58 a 0.39,0.39 0 0 0 0.71,0.13 l 2.86,-4.54 z"
     id="path539" />
</svg>
