<?xml version="1.0" encoding="UTF-8" standalone="no"?>
<!-- Uploaded to: SVG Repo, www.svgrepo.com, Generator: SVG Repo Mixer Tools -->

<svg
   width="700"
   height="700"
   viewBox="0 0 28 28"
   fill="none"
   version="1.1"
   id="svg20"
   sodipodi:docname="jsIcon.svg"
   xmlns:inkscape="http://www.inkscape.org/namespaces/inkscape"
   xmlns:sodipodi="http://sodipodi.sourceforge.net/DTD/sodipodi-0.dtd"
   xmlns="http://www.w3.org/2000/svg"
   xmlns:svg="http://www.w3.org/2000/svg">
  <defs
     id="defs24" />
  <sodipodi:namedview
     id="namedview22"
     pagecolor="#ffffff"
     bordercolor="#000000"
     borderopacity="0.25"
     inkscape:showpageshadow="2"
     inkscape:pageopacity="0.0"
     inkscape:pagecheckerboard="0"
     inkscape:deskcolor="#d1d1d1"
     showgrid="false" />
  <rect
     x="0"
     y="0"
     width="28"
     height="28"
     fill="#ffca28"
     id="rect14" />
  <path
     d="m 17,23.2879 2.0615,-1.3642 c 0.1616,0.5076 1.1847,1.7131 2.477,1.7131 1.2923,0 1.8923,-0.7058 1.8923,-1.1738 0,-1.2752 -1.3196,-1.7248 -1.9534,-1.9407 -0.1034,-0.0352 -0.1884,-0.0642 -0.2466,-0.0895 -0.0299,-0.013 -0.075,-0.0303 -0.1329,-0.0524 -0.7049,-0.2693 -3.3056,-1.2629 -3.3056,-4.1431 0,-3.1723 3.0615,-3.5371 3.7539,-3.5371 0.4529,0 2.6307,0.0555 3.7153,2.0937 l -2,1.3959 c -0.4384,-0.8883 -1.1669,-1.1817 -1.6153,-1.1817 -1.1077,0 -1.3385,0.812 -1.3385,1.1817 0,1.0372 1.2035,1.5021 2.2196,1.8946 0.2659,0.1027 0.5189,0.2004 0.7342,0.3022 C 24.3692,18.91 26,19.7666 26,22.463 c 0,1.3506 -1.1328,3.5372 -3.9846,3.5372 -3.8308,0 -4.8462,-2.2999 -5.0154,-2.7123 z"
     fill="#3e3e3e"
     id="path16" />
  <path
     d="m 7,23.5587 2.1487,-1.3634 c 0.1683,0.5073 0.8226,1.4427 1.7718,1.4427 0.9493,0 1.4352,-0.975 1.4352,-1.4427 v -9.1951 h 2.6425 v 9.1951 c 0.0428,1.2683 -0.6606,3.8049 -3.765,3.8049 C 8.379,26.0002 7.19242,24.3039 7,23.5587 Z"
     fill="#3e3e3e"
     id="path18" />
</svg>
